<svg version="1.2" xmlns="http://www.w3.org/2000/svg" viewBox="0 0 400 400" width="400" height="400">
	<style>
		.s0 { fill: #000000 } 
	</style>
	<path id="Background" fill-rule="evenodd" class="s0" d="m134.53 162.77c1.85-2.13 4.76-2.77 7.46-2.06 3.86 1.03 6.38 4.64 6.53 8.65 0.49 15.43 6.1 28.55 13.98 39.29v11.18c-8.52-2.03-18.39-5.61-27.58-11.21-6.56-4.01-12.6-8.94-17.57-14.97 5.58-15.07 12.46-25.42 17.18-30.88zm67.72 19.36h35.38c2.42 0 4.37 1.95 4.37 4.36 0 0.85-0.28 1.7-0.75 2.41l-10.61 15.92v56.74c0 31.35-25.41 56.74-56.78 56.74h-26.41l-26.83 21.46c-0.99 0.81-2.27 1.24-3.55 1.24-29.35 0-49.08-16.24-55.65-24.97-1.1-1.48-1.42-3.47-0.82-5.24 0.61-1.78 2.06-3.12 3.87-3.62l49.19-13.41c-13.59-7.9-42.02-30.46-42.02-71.91 0-22.66 5.25-39.05 9.16-47.17 1.24-2.52 3.87-3.9 6.67-3.9 4.01 0 7.38 2.84 8.55 6.67 12.18 40.21 56.26 53.94 77.84 55.74v-22.69c0-15.68 12.7-28.37 28.39-28.37zm-4.02 24.36c-1.06 1.06-1.66 2.5-1.66 4.01 0 1.5 0.6 2.95 1.66 4.01 1.07 1.06 2.51 1.66 4.02 1.66 1.51 0 2.95-0.6 4.02-1.66 1.06-1.06 1.66-2.51 1.66-4.01 0-1.51-0.6-2.95-1.66-4.01-1.07-1.07-2.51-1.67-4.02-1.67-1.51 0-2.95 0.6-4.02 1.67z"/>
	<path id="Shape 1" fill-rule="evenodd" class="s0" d="m256.74 55.92l-14.36 11.99-14.36-11.99c-0.92-0.75-2.09-0.9-3.13-0.39-1.03 0.51-1.76 1.62-1.95 2.93l-2.86 20.48-17.18 3.41c-1.09 0.22-2.01 1.09-2.45 2.32-0.45 1.23-0.33 2.64 0.32 3.72l10.06 17.12-10.06 17.12c-0.63 1.09-0.75 2.49-0.32 3.73 0.42 1.23 1.36 2.1 2.45 2.32l17.18 3.41 2.84 20.43c0.19 1.31 0.92 2.4 1.95 2.93 1.04 0.53 2.21 0.38 3.13-0.39l4.95-4.11c1.31-10.11 6.73-18.57 14.16-22.95q-2.29 0.7-4.75 0.7c-10.75 0-19.48-10.39-19.48-23.21 0-12.82 8.73-23.21 19.48-23.21 10.75 0 19.48 10.39 19.48 23.21v0.27c3.83-2.64 8.25-4.14 12.98-4.14q0.69 0.01 1.36 0.05l7.81-13.3c0.63-1.09 0.75-2.49 0.32-3.72-0.42-1.24-1.36-2.11-2.45-2.33l-17.18-3.41-2.87-20.48c-0.18-1.3-0.91-2.41-1.94-2.92-1.04-0.51-2.21-0.36-3.13 0.41zm-23.54 60.54c2.43 2.9 5.74 4.53 9.18 4.53 3.44 0 6.75-1.63 9.18-4.53 2.44-2.91 3.8-6.84 3.8-10.95 0-4.1-1.36-8.04-3.8-10.94-2.43-2.9-5.74-4.53-9.18-4.53-3.44 0-6.75 1.63-9.18 4.53-2.44 2.9-3.8 6.84-3.8 10.94 0 4.11 1.36 8.04 3.8 10.95zm83.45 24.16q0.39-2 0.39-4.15c0-10.69-7.27-19.35-16.23-19.35-3.45 0-6.66 1.28-9.29 3.48-3.41-6.72-9.6-11.22-16.68-11.22-10.75 0-19.48 10.4-19.48 23.22v0.31c-9.21 1.84-16.23 11.37-16.23 22.88 0 12.81 8.73 23.21 19.48 23.21h55.16c8.97 0 16.23-8.66 16.23-19.34 0-9.51-5.76-17.42-13.35-19.04z"/>
</svg>